<svg width="25" height="9" viewBox="0 0 25 9" fill="none" xmlns="http://www.w3.org/2000/svg">
<path d="M6.86416 0.788452L4.49378 5.09362H4.47352L2.10315 0.788452H0.877441V7.98062H2.10315V3.15883H2.11328L4.07846 6.59283H4.87872L6.85403 3.15883H6.86416V7.98062H8.08987V0.788452H6.86416Z" fill="#428B7F"/>
<path d="M14.3272 5.44816C14.3272 4.00973 13.3851 2.96636 11.9265 2.96636C10.5488 2.96636 9.51556 3.98947 9.51556 5.50894C9.51556 7.04867 10.5994 8.06166 12.0379 8.06166C13.0103 8.06166 13.7093 7.66659 14.1246 7.12971L13.3345 6.45101C13.0812 6.76504 12.6761 7.02841 12.0987 7.02841C11.3693 7.02841 10.8426 6.60296 10.6906 5.90401H14.2968C14.307 5.81284 14.3272 5.6305 14.3272 5.44816ZM11.9872 3.98947C12.6355 3.98947 13.0407 4.39466 13.1825 4.99232H10.7109C10.873 4.34401 11.3592 3.98947 11.9872 3.98947Z" fill="#428B7F"/>
<path d="M20.1166 5.44816C20.1166 4.00973 19.1746 2.96636 17.7159 2.96636C16.3382 2.96636 15.305 3.98947 15.305 5.50894C15.305 7.04867 16.3889 8.06166 17.8273 8.06166C18.7998 8.06166 19.4987 7.66659 19.914 7.12971L19.1239 6.45101C18.8707 6.76504 18.4655 7.02841 17.8881 7.02841C17.1587 7.02841 16.632 6.60296 16.48 5.90401H20.0863C20.0964 5.81284 20.1166 5.6305 20.1166 5.44816ZM17.7767 3.98947C18.425 3.98947 18.8302 4.39466 18.972 4.99232H16.5003C16.6624 4.34401 17.1486 3.98947 17.7767 3.98947Z" fill="#428B7F"/>
<path d="M22.857 8.06166C23.5053 8.06166 23.8193 7.92997 24.1131 7.76789L23.8193 6.7853C23.5559 6.92712 23.2824 6.99802 23.09 6.99802C22.7658 6.99802 22.6139 6.81569 22.6139 6.3092V3.9996H24.0624V3.03727H22.6139V1.27468L21.4793 1.39624V3.03727H20.8715V3.9996H21.4793V6.42063C21.4793 7.52478 22.0061 8.06166 22.857 8.06166Z" fill="#428B7F"/>
</svg>
